<?xml version="1.0" encoding="UTF-8"?><svg id="Layer_2" xmlns="http://www.w3.org/2000/svg" viewBox="0 0 75 75"><g id="Layer_1-2"><rect width="75" height="75" rx="16.88" ry="16.88" style="fill:#1f3886;"/><path d="M37.01,17.02l.88-.02c10.67.32,18.54,10.74,15.13,21.1-1.12,3.4-3.38,6.85-5.56,9.67-2.89,3.73-6.31,7.2-9.91,10.23-.08,0-.43-.28-.52-.36-.5-.43-1.11-1.04-1.6-1.51-4.96-4.78-13.73-14.78-14.2-21.81-.61-9.11,6.72-17.03,15.79-17.29ZM36.6,24.31c-6.82.6-10.46,8.56-6.57,14.21s12.31,5.1,15.49-.87c3.45-6.46-1.69-13.98-8.92-13.34Z" style="fill:#fff9ec;"/><path d="M36.6,24.31c7.23-.64,12.37,6.88,8.92,13.34-3.18,5.97-11.66,6.43-15.49.87s-.26-13.61,6.57-14.21ZM41.41,29.37l-4.85,4.9-2.95-2.85-1.99,1.99,4.94,4.79,6.84-6.84-1.99-1.99Z" style="fill:#1f3886;"/><polygon points="41.41 29.37 43.4 31.35 36.56 38.2 31.63 33.4 33.62 31.41 36.56 34.27 41.41 29.37" style="fill:#fff9ec;"/></g></svg>