<?xml version="1.0" encoding="UTF-8"?><svg id="Layer_2" xmlns="http://www.w3.org/2000/svg" viewBox="0 0 72.97 72.97"><g id="Layer_1-2"><path d="M64.28,0H8.69C3.89,0,0,3.89,0,8.69v55.6c0,4.8,3.89,8.69,8.69,8.69h55.6c4.8,0,8.69-3.89,8.69-8.69V8.69c0-4.8-3.89-8.69-8.69-8.69ZM22.59,27.8v33.01h-10.42V27.8h10.42ZM11.46,18.82c0-2.43,2.08-4.29,5.21-4.29s5.09,1.86,5.21,4.29c0,2.43-1.95,4.4-5.21,4.4s-5.21-1.96-5.21-4.4ZM60.81,60.81h-10.42v-17.32c0-3.46-1.74-6.93-6.08-7h-.14c-4.2,0-5.94,3.57-5.94,7v17.32h-10.42V27.8h10.42v4.45s3.35-4.45,10.09-4.45,12.49,4.74,12.49,14.35v18.66Z" style="fill:#1f3886;"/></g></svg>