
<svg id="Layer_1" xmlns="http://www.w3.org/2000/svg" viewBox="0 0 258.16 258.16" width="450" height="450"><path d="M156.33,142.61c17.31,0,24.56-17.21,24.56-34.43s-7.25-34.43-24.56-34.43-24.68,17.21-24.68,34.43,7.37,34.43,24.68,34.43M187.29,108.18c0,22.08-15.23,35.28-30.97,35.28s-31.07-12.3-31.07-35.28,15.43-35.28,31.07-35.28,30.97,12.3,30.97,35.28" style="fill:#ec1c24;"/><path d="M102.84,108.99c-.74-1.1-.73-2.53.02-3.62l22.54-32.47-26.92,30.81h-.1l-26.51-30.81,21.9,32.9c.72,1.08.72,2.48,0,3.56l-22.9,34.11,27.42-32.42h.1l27.72,32.42-23.27-34.47Z" style="fill:#ec1c24;"/><path d="M43.45,163.71c0-4.05,3.02-6.97,6.89-6.97,2.3,0,4.13.94,5.35,2.54l-1,.72c-1.02-1.32-2.46-2.08-4.37-2.08-3.16,0-5.51,2.48-5.51,5.79s2.38,5.79,5.61,5.79c1.96,0,3.54-.82,4.63-2.26l1.02.72c-1.34,1.76-3.24,2.72-5.69,2.72-3.91,0-6.95-2.92-6.93-6.97" style="fill:#233671;"/><path d="M85.96,165.96c3.1,0,4.35-1.66,4.35-3.93s-1.24-3.97-4.35-3.97h-1.54v7.89h1.54ZM84.42,170.52h-1.3v-13.62h2.92c3.68,0,5.61,2.18,5.61,5.13s-1.92,5.09-5.61,5.09h-1.62v3.4Z" style="fill:#233671;"/><polygon points="100.34 156.9 108.56 156.9 108.56 158.07 101.65 158.07 101.65 164.88 107.81 164.88 107.81 166.02 101.65 166.02 101.65 169.36 108.84 169.36 108.84 170.52 100.34 170.52 100.34 156.9" style="fill:#233671;"/><path d="M149.73,165.98c3.1,0,4.35-1.66,4.35-3.95s-1.26-3.97-4.35-3.97h-1.58v7.91h1.58ZM155.22,170.52h-1.58l-2.7-3.48c-.36.06-.72.08-1.12.08h-1.66v3.4h-1.3v-13.62h2.96c3.71,0,5.63,2.18,5.63,5.13,0,2.18-1.08,3.97-3.18,4.71l2.96,3.79Z" style="fill:#233671;"/><polygon points="165.49 159.81 165.49 170.52 164.27 170.52 164.27 156.62 164.39 156.62 173.57 167.62 173.57 156.9 174.79 156.9 174.79 170.8 174.67 170.8 165.49 159.81" style="fill:#233671;"/><polygon points="185.5 159.81 185.5 170.52 184.28 170.52 184.28 156.62 184.4 156.62 193.57 167.62 193.57 156.9 194.8 156.9 194.8 170.8 194.67 170.8 185.5 159.81" style="fill:#233671;"/><path d="M69.02,156.58h-.1l-5.73,13.94h1.3l.96-2.36.46-1.16,3.06-7.55s3.04,7.55,3.02,7.55l.48,1.16.94,2.36h1.34l-5.75-13.94Z" style="fill:#233671;"/><path d="M133.01,156.58h-.1l-5.73,13.94h1.3l.96-2.36.46-1.16,3.06-7.55s3.04,7.55,3.02,7.55l.48,1.16.94,2.36h1.34l-5.75-13.94Z" style="fill:#233671;"/><path d="M208.97,156.58h-.1l-5.73,13.94h1.3l.96-2.36.46-1.16,3.06-7.55s3.04,7.55,3.02,7.55l.48,1.16.94,2.36h1.34l-5.75-13.94Z" style="fill:#233671;"/><path d="M59.64,184.19l.42-.22c.26.46.7.79,1.41.79.88,0,1.38-.56,1.38-1.33s-.53-1.3-1.43-1.3c-.29,0-.51.05-.65.1l-.02-.05,1.55-1.81h-2.23v-.45h3.12v.04l-1.52,1.78c1.01.04,1.69.74,1.69,1.71,0,1.05-.77,1.77-1.88,1.77-.88,0-1.52-.43-1.84-1.02" style="fill:#233671;"/><path d="M68.22,183.47c0-.72-.48-1.31-1.3-1.31s-1.29.58-1.29,1.31.5,1.3,1.29,1.3,1.3-.6,1.3-1.3M65.12,183.47c0-.45.16-.83.43-1.22l1.64-2.34h.55l-1.42,2.01c.18-.12.42-.2.68-.2.98,0,1.72.76,1.72,1.74s-.74,1.75-1.8,1.75-1.81-.78-1.81-1.74" style="fill:#233671;"/><path d="M71.32,180.82c0-.35-.24-.62-.59-.62s-.59.27-.59.62.24.61.59.61.59-.26.59-.61M69.74,180.82c0-.55.44-.96.98-.96s.98.42.98.96-.43.96-.98.96-.98-.43-.98-.96" style="fill:#233671;"/><path d="M78.79,181.01l-2.12,2.7h2.12v-2.7ZM79.86,183.71v.42h-.57v1.02h-.5v-1.02h-2.99v-.04l3.46-4.3h.03v3.91h.57Z" style="fill:#233671;"/><path d="M86.44,182.54c0-1.27-.92-2.22-2.16-2.22s-2.16.95-2.16,2.22.92,2.22,2.16,2.22,2.16-.95,2.16-2.22M81.59,182.54c0-1.55,1.2-2.68,2.68-2.68s2.68,1.13,2.68,2.68-1.2,2.68-2.68,2.68-2.68-1.13-2.68-2.68" style="fill:#233671;"/><polygon points="88.53 179.92 89.05 179.92 88.99 181.24 88.59 181.24 88.53 179.92" style="fill:#233671;"/><path d="M96.19,181.01l-2.12,2.7h2.12v-2.7ZM97.26,183.71v.42h-.57v1.02h-.5v-1.02h-2.99v-.04l3.46-4.3h.03v3.91h.57Z" style="fill:#233671;"/><path d="M98.9,184.19l.42-.22c.26.46.7.79,1.41.79.88,0,1.38-.56,1.38-1.33s-.53-1.3-1.43-1.3c-.29,0-.51.05-.65.1l-.02-.05,1.55-1.81h-2.23v-.45h3.12v.04l-1.52,1.78c1.01.04,1.69.74,1.69,1.71,0,1.05-.77,1.77-1.88,1.77-.88,0-1.52-.43-1.84-1.02" style="fill:#233671;"/><path d="M104.25,184.84c0-.21.17-.36.36-.36s.36.15.36.36-.18.36-.36.36-.36-.15-.36-.36" style="fill:#233671;"/><path d="M109.44,181.01l-2.12,2.7h2.12v-2.7ZM110.51,183.71v.42h-.57v1.02h-.5v-1.02h-2.99v-.04l3.46-4.3h.03v3.91h.57Z" style="fill:#233671;"/><path d="M112.97,179.92h.53l-.06,1.32h-.4l-.07-1.32ZM112.05,179.92h.52l-.06,1.32h-.4l-.06-1.32Z" style="fill:#233671;"/><polygon points="118.68 181.04 118.68 185.15 118.21 185.15 118.21 179.81 118.25 179.81 121.77 184.04 121.77 179.92 122.24 179.92 122.24 185.26 122.2 185.26 118.68 181.04" style="fill:#233671;"/><rect x="129.52" y="182.15" width="1.25" height=".42" style="fill:#233671;"/><path d="M137.6,185.11l2.17-2.31c.46-.49.74-.92.74-1.48s-.38-1.02-1.07-1.02c-.62,0-1.04.43-1.2.97,0,0-.45-.15-.45-.15.18-.71.77-1.28,1.65-1.28.95,0,1.57.61,1.57,1.45,0,.68-.39,1.24-.9,1.78l-1.52,1.62h2.45v.45h-3.45v-.04Z" style="fill:#233671;"/><path d="M146.03,181.64c0-.72-.48-1.33-1.32-1.33s-1.32.62-1.32,1.33.48,1.33,1.32,1.33,1.32-.61,1.32-1.33M145.33,183.2c-.18.11-.42.2-.71.2-1.02,0-1.74-.78-1.74-1.76s.75-1.78,1.82-1.78,1.84.79,1.84,1.76c0,.45-.19.84-.47,1.26l-1.5,2.27h-.55l1.3-1.95Z" style="fill:#233671;"/><path d="M149.85,180.82c0-.35-.24-.62-.59-.62s-.59.27-.59.62.24.61.59.61.59-.26.59-.61M148.27,180.82c0-.55.44-.96.98-.96s.98.42.98.96-.43.96-.98.96-.98-.43-.98-.96" style="fill:#233671;"/><path d="M159.39,182.54c0-1.27-.92-2.22-2.16-2.22s-2.16.95-2.16,2.22.92,2.22,2.16,2.22,2.16-.95,2.16-2.22M154.54,182.54c0-1.55,1.2-2.68,2.68-2.68s2.68,1.13,2.68,2.68-1.2,2.68-2.68,2.68-2.68-1.13-2.68-2.68" style="fill:#233671;"/><path d="M164.33,181.01l-2.12,2.7h2.12v-2.7ZM165.4,183.71v.42h-.57v1.02h-.5v-1.02h-2.99v-.04l3.46-4.3h.03v3.91h.57Z" style="fill:#233671;"/><polygon points="166.94 179.92 167.47 179.92 167.4 181.24 167 181.24 166.94 179.92" style="fill:#233671;"/><path d="M171.7,184.23l.42-.22c.26.45.72.75,1.41.75.84,0,1.32-.6,1.32-1.38s-.52-1.36-1.41-1.36c-.52,0-.94.17-1.23.43l-.04-.02v-2.51h2.81v.45h-2.35v1.42c.25-.14.53-.22.88-.22,1.11,0,1.86.78,1.86,1.81s-.71,1.83-1.84,1.83c-.82,0-1.49-.37-1.83-.98" style="fill:#233671;"/><polygon points="179.92 180.37 176.94 180.37 176.94 179.92 180.66 179.92 180.66 179.96 178.06 185.15 177.52 185.15 179.92 180.37" style="fill:#233671;"/><path d="M181.38,184.84c0-.21.17-.36.36-.36s.36.15.36.36-.18.36-.36.36-.36-.15-.36-.36" style="fill:#233671;"/><path d="M183.74,184.19l.42-.22c.26.46.7.79,1.41.79.88,0,1.38-.56,1.38-1.33s-.53-1.3-1.43-1.3c-.29,0-.51.05-.65.1l-.02-.05,1.55-1.81h-2.23v-.45h3.12v.04l-1.52,1.78c1.01.04,1.69.74,1.69,1.71,0,1.05-.77,1.77-1.88,1.77-.88,0-1.52-.43-1.84-1.02" style="fill:#233671;"/><path d="M190.02,179.92h.53l-.06,1.32h-.4l-.07-1.32ZM189.11,179.92h.52l-.06,1.32h-.4l-.06-1.32Z" style="fill:#233671;"/><polygon points="195.26 179.92 198.42 179.92 198.42 180.37 195.76 180.37 195.76 182.98 198.13 182.98 198.13 183.42 195.76 183.42 195.76 184.7 198.52 184.7 198.52 185.15 195.26 185.15 195.26 179.92" style="fill:#233671;"/></svg>