<?xml version="1.0" encoding="UTF-8"?>
<svg id="Layer_1" xmlns="http://www.w3.org/2000/svg" version="1.1" viewBox="0 0 258.2 258.2">
  <!-- Generator: Adobe Illustrator 29.1.0, SVG Export Plug-In . SVG Version: 2.1.0 Build 142)  -->
  <defs>
    <style>
      .st0 {
        isolation: isolate;
      }

      .st1 {
        fill: #ea1f27;
      }
    </style>
  </defs>
  <g id="Layer_1-2">
    <g class="st0">
      <g class="st0">
        <g class="st0">
          <path class="st1" d="M69.8,27.2l23.4,35.1v-29.2c0-2.6-2.4-5.2-4.7-5.2h-2.7v-.7h13.7v.7h-1.1c-2.2,0-4.4,2.6-4.4,5.2v38h-.6l-26.8-40v33.9c0,2.6,2.4,5.2,4.6,5.2h2.7v.7h-13.7v-.7h1.2c2.3,0,4.4-2.6,4.4-5.2V30.3l-1.8-2.4h-3.8v-.7h9.7Z"/>
          <path class="st1" d="M118.8,27.2v.7h-5.1v42.3h5.1v.7h-15.1v-.7h5.1V27.9h-5.1v-.7h15.1Z"/>
          <path class="st1" d="M154.2,29.9c.4.3.9.5,1.3.5,1.6,0,3.3-2.1,3.3-3.3h.5v13.9h-.6c-1.2-8.2-6.5-13.7-13.9-13.7s-13.9,6.9-13.9,21.9,4.9,21.8,13.9,21.8,12.7-5.4,13.9-13.7h.6v13.9h-.5c0-1.2-1.7-3.3-3.3-3.3s-.9.2-1.3.5c-2.1,1.8-5.1,3.2-9.4,3.2-11.3,0-19.4-7.9-19.4-22.4s8.1-22.5,19.4-22.5,7.3,1.4,9.4,3.2Z"/>
          <path class="st1" d="M196,27.2v9.1h-.7v-1.4c0-3.6-3.7-7-7.4-7h-13.2v19.7h8.2c2.7,0,5.2-2.7,5.2-5.3v-1.2h.6v13.6h-.6v-1.2c0-2.6-2.6-5.2-5.2-5.2h-8.2v21.9h13.3c3.9,0,8-3.7,8-7.6v-1.3h.6v9.6h-32v-.7h5.1V27.9h-5.1v-.7h31.3Z"/>
        </g>
      </g>
    </g>
    <g class="st0">
      <g class="st0">
        <g class="st0">
          <path class="st1" d="M128.6,78.6l-1.7,9.9h-.6l.3-2.2c.7-3.6-2.4-7-5.6-7h-7.6l-7.5,42.3h5.1v.7h-15.3v-.7h5.2l7.4-42.3h-7.6c-3.3,0-7.5,3.4-8.1,7l-.4,2.2h-.7l1.7-9.9h35.2Z"/>
        </g>
      </g>
      <g class="st0">
        <g class="st0">
          <path class="st1" d="M168.1,100.5c-2.6,14.5-12,22.4-23.3,22.4s-18-7.9-15.5-22.4c2.6-14.6,12-22.5,23.4-22.5s18,7.9,15.4,22.5ZM134.8,100.5c-2.6,14.9,1.1,21.8,10.1,21.8s15.1-6.9,17.8-21.8c2.6-15-1.1-21.9-10.1-21.9s-15.2,6.9-17.8,21.9Z"/>
        </g>
      </g>
    </g>
    <g class="st0">
      <g class="st0">
        <g class="st0">
          <path class="st1" d="M58.5,130l14.9,37.2,14.3-37.2h10.3v.7h-5.1v42.3h5.1v.7h-15.1v-.7h5.1v-41.7l-16.2,42.4h-1.1l-17-42.9v37.1c0,2.6,2.4,5.2,4.6,5.2h2.7v.7h-13.7v-.7h1.2c2.3,0,4.5-2.6,4.5-5.2v-37.1h-5.7v-.7h11.3Z"/>
          <path class="st1" d="M133.5,130v9.1h-.7v-1.4c0-3.6-3.7-7-7.4-7h-13.2v19.7h8.2c2.7,0,5.2-2.7,5.2-5.3v-1.2h.6v13.6h-.6v-1.2c0-2.6-2.6-5.2-5.2-5.2h-8.2v21.9h13.3c3.9,0,8-3.7,8-7.6v-1.3h.6v9.6h-32v-.7h5.1v-42.3h-5.1v-.7h31.3Z"/>
          <path class="st1" d="M171.2,130v9.1h-.7v-1.4c0-3.6-3.7-7-7.4-7h-13.2v19.7h8.2c2.7,0,5.2-2.7,5.2-5.3v-1.2h.6v13.6h-.6v-1.2c0-2.6-2.6-5.2-5.2-5.2h-8.2v21.9h13.3c3.9,0,8-3.7,8-7.6v-1.3h.6v9.6h-32v-.7h5.1v-42.3h-5.1v-.7h31.3Z"/>
          <path class="st1" d="M211.8,130v9.9h-.7v-2.2c0-3.6-3.6-7-6.9-7h-7.6v42.3h5.1v.7h-15.2v-.7h5.1v-42.3h-7.6c-3.2,0-6.9,3.4-6.9,7v2.2h-.7v-9.9h35.2Z"/>
        </g>
      </g>
    </g>
    <g class="st0">
      <g class="st0">
        <g class="st0">
          <path class="st1" d="M83,181.4v.7h-5.6l10.2,20.1,11.9-13.3c.7-.7,1.2-1.7,1.3-2.6.4-2.2-1.1-4.2-3.2-4.2h-2.9v-.7h14.9v.7h-2.7l-18.9,20.8-3.7,21.5h5.1v.7h-15.2v-.7h5.1l3.6-20.2-11.2-22.1h-3.1l.2-.7h14.4Z"/>
        </g>
      </g>
      <g class="st0">
        <g class="st0">
          <path class="st1" d="M147,203.3c-2.6,14.5-12,22.4-23.3,22.4s-18-7.9-15.5-22.4c2.6-14.6,12-22.5,23.4-22.5s18,7.9,15.4,22.5ZM113.6,203.3c-2.6,14.9,1.1,21.8,10.1,21.8s15.1-6.9,17.8-21.8c2.6-15-1.1-21.9-10-21.9s-15.2,6.9-17.8,21.9Z"/>
          <path class="st1" d="M172,181.4v.7h-5.2l-4.9,28.3c-2,11,2.4,14.5,9.2,14.5s13.9-4.3,15.7-14.5l4.1-22.9c.4-2.7-1.5-5.4-4.1-5.4h-2.6v-.7h14.5v.7h-1.4c-2.5,0-5.3,2.7-5.8,5.4l-4,22.9c-1.9,10.7-8.5,15.3-17.5,15.3s-15-4.6-13.2-15.3l5-28.3h-5.1v-.7h15.2Z"/>
        </g>
      </g>
    </g>
  </g>
</svg>