<?xml version="1.0" encoding="UTF-8"?><svg id="Layer_2" xmlns="http://www.w3.org/2000/svg" viewBox="0 0 75 75"><g id="Layer_1-2"><path d="M58.12,75H16.88c-9.32,0-16.88-7.56-16.88-16.88V16.88C0,7.56,7.56,0,16.88,0h41.25c9.32,0,16.88,7.56,16.88,16.88v41.25c0,9.32-7.56,16.88-16.88,16.88ZM54.86,60.94c1.51,0,6.68-2.71,6.39-9.39-.05-1.18-.71-2.26-1.73-2.91-1.16-.74-2.96-1.9-5.3-3.4-2.14-1.37-4.9-1.46-7.13-.24l-3.91,2.75c-1.06.74-2.41.89-3.61.39-1.86-.78-4.71-2.28-7.38-4.95s-4.18-5.53-4.95-7.38c-.5-1.19-.35-2.55.39-3.61l2.75-3.91c1.22-2.23,1.13-4.99-.24-7.13-1.5-2.35-2.65-4.14-3.4-5.3-.65-1.02-1.73-1.68-2.91-1.73-6.68-.29-9.39,4.89-9.39,6.39,0,1.04-1.43,13.57,12.71,27.71,14.14,14.14,26.67,12.71,27.71,12.71Z" style="fill:#1f3886;"/></g></svg>