<?xml version="1.0" encoding="UTF-8"?><svg id="Layer_2" xmlns="http://www.w3.org/2000/svg" viewBox="0 0 75 75"><g id="Layer_1-2"><rect width="75" height="75" rx="16.88" ry="16.88" style="fill:#1f3886;"/><path d="M17.33,59.94c0-13.09,13.45-9.35,15.13-14.96v-3.74c-.76-.42-2.92-3.28-3.15-5.52-.6-.05-1.53-.66-1.81-3.06-.15-1.29.44-2.01.8-2.24,0,0-.89-2.08-.89-4.14,0-6.14,2.95-11.22,10.08-11.22,3.85,0,5.04,2.8,5.04,2.8,3.44,0,5.04,3.87,5.04,8.42,0,2.26-.89,4.14-.89,4.14.36.23.94.95.8,2.24-.28,2.4-1.21,3.01-1.81,3.06-.23,2.24-2.39,5.1-3.15,5.52v3.74c1.68,5.61,15.13,1.87,15.13,14.96H17.33Z" style="fill:#fff9ec;"/></g></svg>