<?xml version="1.0" encoding="UTF-8"?><svg id="Layer_2" xmlns="http://www.w3.org/2000/svg" viewBox="0 0 90.24 67"><g id="Layer_1-2"><path d="M87.72,11.52c-.84-4.61-4.82-7.96-9.42-9-6.91-1.47-19.68-2.51-33.5-2.51S18.01,1.05,11.1,2.51C6.49,3.56,2.51,6.7,1.67,11.52c-.84,5.23-1.67,12.56-1.67,21.98s.84,16.75,1.88,21.98c.84,4.61,4.82,7.96,9.42,9,7.33,1.47,19.89,2.51,33.71,2.51s26.38-1.05,33.71-2.51c4.61-1.05,8.58-4.19,9.42-9,.84-5.23,1.88-12.77,2.09-21.98-.42-9.42-1.47-16.75-2.51-21.98ZM33.05,48.15v-29.31l25.54,14.66-25.54,14.66Z" style="fill:#1f3886;"/></g></svg>